 <svg  version="1.0" xmlns="http://www.w3.org/2000/svg"  width="300.000000pt" height="243.000000pt" viewBox="0 0 300.000000 243.000000"  preserveAspectRatio="xMidYMid meet">  <g transform="translate(0.000000,243.000000) scale(0.100000,-0.100000)" fill="#e60000" stroke="none"> <path d="M1389 2367 c-24 -13 -57 -43 -74 -66 -27 -39 -30 -50 -30 -121 0 -71 3 -82 30 -121 77 -109 239 -118 329 -19 123 137 26 349 -160 350 -34 0 -65 -8 -95 -23z m200 -45 c51 -41 72 -82 73 -140 0 -82 -45 -144 -122 -168 -34 -10 -43 -10 -100 -1 -97 15 -159 152 -110 246 49 96 180 127 259 63z"/> <path d="M1445 2327 c-70 -22 -121 -102 -109 -170 7 -43 54 -103 93 -119 31 -13 74 -11 119 3 45 15 92 88 92 141 0 99 -102 175 -195 145z m104 -42 c38 -19 65 -77 57 -124 -8 -52 -63 -101 -114 -101 -116 0 -169 140 -81 214 35 30 93 35 138 11z"/> <path d="M972 2065 c-36 -30 -30 -4 -92 -393 -45 -286 -48 -317 -36 -347 20 -48 60 -65 152 -65 67 0 75 2 64 15 -8 10 -31 15 -67 15 -67 0 -109 20 -117 57 -3 16 -2 57 3 93 5 36 15 101 21 145 6 44 14 87 17 95 3 8 7 29 8 45 1 17 8 66 15 110 6 44 14 98 17 120 12 102 67 117 188 54 174 -90 311 -157 335 -162 17 -4 40 2 69 18 24 14 49 25 56 25 7 0 15 3 17 8 2 4 67 40 145 80 166 84 203 90 231 36 9 -17 43 -201 56 -309 2 -16 9 -57 15 -90 11 -62 28 -175 35 -233 7 -52 -25 -81 -98 -87 -70 -6 -96 -13 -96 -26 0 -5 36 -9 81 -9 79 0 82 1 115 34 22 22 34 44 34 61 0 45 -100 666 -111 686 -12 24 -60 49 -92 49 -13 0 -120 -49 -238 -110 l-213 -109 -211 109 c-135 70 -223 110 -243 110 -18 0 -43 -10 -60 -25z"/> <path d="M1010 2010 c-23 -20 -36 -74 -54 -215 -4 -27 -15 -99 -26 -160 -38 -225 -40 -268 -10 -299 23 -24 116 -24 140 -1 13 13 6 15 -57 15 -40 0 -74 3 -76 8 -5 8 92 634 100 642 2 3 105 -46 227 -109 171 -88 228 -113 247 -108 13 4 116 54 229 112 112 58 209 104 214 102 9 -3 104 -567 105 -624 1 -22 -3 -23 -69 -23 -69 0 -91 -12 -47 -26 37 -12 110 -5 129 13 20 18 23 55 8 134 -6 30 -26 155 -45 279 -38 245 -50 278 -99 272 -15 -2 -114 -48 -221 -102 -107 -55 -205 -100 -217 -100 -13 0 -50 14 -83 31 -142 74 -356 179 -363 179 -5 0 -19 -9 -32 -20z"/> <path d="M1175 1643 c-35 -9 -63 -33 -79 -68 -13 -27 -16 -71 -16 -233 0 -191 1 -200 23 -233 39 -58 43 -59 380 -59 341 0 363 3 392 60 14 26 16 66 16 242 -1 311 24 292 -391 295 -168 0 -314 -1 -325 -4z m617 -101 c4 -4 7 -96 6 -203 l-3 -194 -299 -3 c-212 -2 -303 1 -312 9 -21 17 -20 385 0 396 20 11 597 6 608 -5z m67 -249 c1 -12 -3 -25 -9 -28 -6 -4 -10 12 -9 42 0 36 3 43 9 28 5 -11 9 -30 9 -42z m-729 12 c0 -19 -4 -35 -10 -35 -11 0 -14 53 -3 63 11 12 13 8 13 -28z"/> <path d="M1126 985 c-6 -18 2 -45 15 -45 5 0 162 -1 349 -1 187 0 345 1 351 1 6 0 9 12 7 28 l-3 27 -356 3 c-311 2 -358 0 -363 -13z"/> <path d="M646 741 c-4 -5 -3 -16 0 -25 4 -11 1 -16 -10 -16 -9 0 -16 -8 -16 -20 0 -11 6 -20 14 -20 11 0 14 -15 13 -70 -2 -82 4 -90 76 -90 35 0 47 4 47 15 0 9 -9 15 -25 15 -24 0 -25 2 -25 65 0 63 1 65 25 65 18 0 25 5 25 20 0 15 -7 20 -25 20 -20 0 -25 5 -25 25 0 22 -4 25 -34 25 -19 0 -37 -4 -40 -9z"/> <path d="M1032 628 l3 -123 39 -3 38 -3 -3 80 -4 81 36 0 c44 0 49 -9 49 -96 l0 -65 33 3 32 3 3 71 c4 98 -13 119 -96 119 l-60 0 5 28 c5 26 4 27 -36 27 l-42 0 3 -122z"/> <path d="M2244 725 c5 -18 2 -25 -9 -25 -8 0 -15 -4 -15 -10 0 -5 6 -10 14 -10 12 0 14 -13 9 -68 -7 -84 5 -112 47 -112 17 0 30 5 30 10 0 6 -9 10 -20 10 -18 0 -20 7 -20 80 0 79 0 80 25 80 14 0 25 5 25 10 0 6 -11 10 -25 10 -20 0 -25 5 -25 25 0 19 -5 25 -21 25 -18 0 -20 -4 -15 -25z"/> <path d="M17 723 c-4 -3 -7 -55 -7 -115 l0 -108 30 0 c30 0 30 1 30 54 0 30 -6 61 -12 68 -7 7 -12 20 -12 28 1 8 2 21 3 28 2 20 28 13 45 -13 20 -30 20 -39 1 -31 -20 7 -19 -8 7 -76 20 -50 26 -58 49 -58 23 0 29 8 52 68 14 37 28 79 32 95 4 19 12 27 26 27 18 0 20 -6 18 -55 -1 -30 -6 -52 -11 -49 -4 3 -8 14 -8 24 0 10 -4 22 -10 25 -6 4 -10 -15 -10 -49 0 -30 -3 -62 -6 -71 -6 -14 0 -16 37 -13 l44 3 0 110 0 110 -46 3 -47 3 -28 -71 -28 -71 -28 62 c-15 34 -28 66 -28 70 0 10 -83 12 -93 2z"/> <path d="M1350 717 c-33 -16 -50 -52 -50 -105 0 -53 23 -100 53 -107 37 -10 170 -1 174 11 3 8 -19 10 -70 6 -66 -4 -77 -2 -96 17 -27 27 -29 108 -3 141 21 26 83 36 135 22 29 -8 37 -8 37 3 0 7 -7 16 -16 19 -28 11 -138 6 -164 -7z"/> <path d="M382 688 c-26 -26 -12 -34 57 -30 62 4 70 2 80 -17 13 -24 16 -23 -64 -22 -72 2 -84 -5 -91 -51 -10 -56 11 -68 116 -68 49 0 94 2 102 5 10 4 12 25 8 87 -5 76 -7 84 -30 95 -32 16 -162 17 -178 1z m138 -128 c0 -28 -2 -30 -40 -30 -38 0 -40 2 -40 30 0 28 2 30 40 30 38 0 40 -2 40 -30z"/> <path d="M831 686 c-30 -17 -39 -38 -40 -94 -1 -33 5 -49 24 -68 23 -23 31 -25 102 -22 65 3 78 6 81 21 3 14 -4 17 -46 17 -75 0 -82 5 -82 60 0 55 7 60 81 60 50 0 58 7 37 28 -16 16 -127 15 -157 -2z"/> <path d="M1588 693 c-16 -4 -18 -17 -18 -99 0 -87 1 -94 20 -94 19 0 20 7 20 90 l0 90 35 0 c22 0 38 -6 41 -15 7 -16 44 -21 44 -6 0 5 -7 17 -16 25 -15 15 -84 20 -126 9z"/> <path d="M1785 675 c-21 -20 -25 -34 -25 -80 0 -81 19 -97 112 -93 39 2 73 8 75 13 2 6 -21 9 -60 7 -78 -4 -92 9 -91 81 0 36 6 53 19 63 41 30 105 8 105 -37 0 -16 -7 -19 -49 -19 -28 0 -53 -4 -56 -10 -4 -6 20 -10 64 -10 l71 0 0 35 c0 52 -28 75 -90 75 -41 0 -56 -5 -75 -25z"/> <path d="M2007 693 c-17 -16 -3 -21 53 -16 66 6 90 -5 90 -41 0 -20 -4 -21 -63 -18 -73 4 -97 -10 -97 -57 0 -51 19 -64 97 -64 39 0 75 3 82 7 7 4 11 37 11 85 0 100 -10 111 -102 111 -35 0 -68 -3 -71 -7z m143 -132 c0 -36 -3 -40 -30 -46 -67 -15 -106 13 -93 65 5 17 14 20 64 20 l59 0 0 -39z"/> <path d="M2388 690 c-24 -15 -41 -75 -33 -118 11 -58 29 -72 95 -72 78 0 93 13 98 88 4 55 2 63 -21 86 -21 21 -36 26 -74 26 -26 0 -56 -5 -65 -10z m113 -27 c8 -9 14 -37 14 -63 0 -60 -17 -80 -66 -80 -28 0 -41 5 -49 19 -16 30 -12 107 6 125 20 21 78 20 95 -1z"/> <path d="M2618 693 c-16 -4 -18 -17 -18 -99 0 -87 1 -94 20 -94 19 0 20 7 20 90 l0 90 35 0 c22 0 38 -6 41 -15 7 -16 44 -21 44 -6 0 5 -7 17 -16 25 -15 15 -84 20 -126 9z"/> <path d="M2800 680 c-11 -11 -20 -28 -20 -37 0 -37 18 -48 87 -53 65 -5 68 -6 71 -32 4 -34 -24 -43 -105 -35 -39 4 -53 2 -50 -6 2 -8 32 -13 80 -15 66 -2 79 0 97 18 23 23 26 62 7 78 -7 6 -42 12 -77 14 -62 3 -65 4 -68 30 -4 34 24 43 104 35 30 -3 54 -2 54 3 0 14 -29 20 -96 20 -51 0 -68 -4 -84 -20z"/> <path d="M1047 193 c-3 -16 -2 -29 1 -31 4 -1 6 -22 4 -46 -5 -55 11 -86 43 -86 14 0 25 5 25 10 0 6 -7 10 -15 10 -11 0 -15 13 -15 54 0 47 3 55 23 61 l22 8 -22 4 c-15 3 -23 12 -23 24 0 31 -37 24 -43 -8z"/> <path d="M1154 195 c-6 -24 0 -44 10 -34 11 11 17 59 7 59 -6 0 -13 -11 -17 -25z"/> <path d="M2075 125 c0 -84 2 -95 18 -95 12 0 17 8 17 30 0 19 5 30 14 30 8 0 24 -13 36 -30 14 -20 30 -30 46 -30 26 0 26 0 -10 42 -20 23 -36 45 -36 49 0 4 14 19 31 33 29 25 30 26 7 26 -14 0 -35 -14 -55 -37 l-32 -38 -1 58 c0 47 -3 57 -17 57 -16 0 -18 -11 -18 -95z"/> <path d="M2250 168 c0 -48 13 -90 23 -78 2 3 7 33 10 68 6 57 5 62 -13 62 -17 0 -20 -7 -20 -52z"/> <path d="M1694 202 c-6 -4 -14 -36 -17 -71 -11 -98 -21 -98 -44 3 -11 52 -19 66 -33 66 -20 0 -21 -3 -40 -87 -14 -61 -27 -68 -35 -18 -3 19 -7 51 -10 70 -4 25 -11 35 -24 35 -17 0 -17 -4 -5 -77 14 -79 23 -93 61 -93 18 0 23 9 32 50 6 28 11 58 11 67 0 32 12 4 24 -54 9 -47 15 -59 32 -61 35 -5 51 22 58 98 8 76 7 83 -10 72z"/> <path d="M700 115 l0 -85 75 0 c62 0 75 3 75 16 0 13 -10 15 -55 12 l-55 -3 0 73 c0 65 -2 72 -20 72 -18 0 -20 -7 -20 -85z"/> <path d="M887 162 c-23 -26 -22 -94 1 -115 28 -25 132 -21 132 5 0 5 -18 7 -43 3 -34 -5 -48 -3 -60 10 -35 34 -13 95 33 95 17 0 31 -4 32 -10 4 -32 2 -35 -29 -32 -17 2 -34 -1 -38 -7 -4 -7 13 -11 49 -11 53 0 56 1 56 24 0 37 -26 56 -74 56 -29 0 -48 -6 -59 -18z"/> <path d="M1209 156 c-17 -37 3 -56 58 -56 31 0 45 -5 50 -16 9 -24 -17 -36 -69 -30 -46 5 -65 -5 -32 -18 45 -17 126 0 138 29 13 34 -11 55 -64 55 -44 0 -50 3 -50 21 0 18 5 20 53 18 28 -1 54 2 57 7 3 5 -25 10 -63 12 -63 3 -68 2 -78 -22z"/> <path d="M1752 168 c-19 -19 -15 -102 6 -121 26 -24 87 -22 112 3 24 24 26 77 4 108 -12 17 -25 22 -63 22 -26 0 -52 -5 -59 -12z m93 -63 c0 -45 -2 -50 -23 -53 -31 -5 -52 15 -52 48 0 49 10 61 44 58 30 -3 31 -4 31 -53z"/> <path d="M1924 166 c-3 -7 -4 -40 -2 -72 2 -47 7 -59 21 -62 15 -3 17 5 17 62 0 64 1 66 25 66 14 0 25 -4 25 -10 0 -5 9 -10 20 -10 23 0 26 10 8 28 -17 17 -107 16 -114 -2z"/> </g> </svg> 